<?xml version="1.0" encoding="UTF-8" standalone="no"?>
<!-- Created with Inkscape (http://www.inkscape.org/) -->

<svg
   version="1.1"
   id="svg1"
   width="128"
   height="128"
   viewBox="0 0 128 128"
   sodipodi:docname="tapboard-not-connected.svg"
   inkscape:version="1.3.1 (9b9bdc1480, 2023-11-25, custom)"
   xmlns:inkscape="http://www.inkscape.org/namespaces/inkscape"
   xmlns:sodipodi="http://sodipodi.sourceforge.net/DTD/sodipodi-0.dtd"
   xmlns="http://www.w3.org/2000/svg"
   xmlns:svg="http://www.w3.org/2000/svg">
  <defs
     id="defs1">
    <clipPath
       clipPathUnits="userSpaceOnUse"
       id="clipPath2">
      <path
         d="M 0,595.28 H 280.63 V 0 H 0 Z"
         transform="translate(-140.4063,-236.62601)"
         id="path2" />
    </clipPath>
    <clipPath
       clipPathUnits="userSpaceOnUse"
       id="clipPath4">
      <path
         d="M 0,595.28 H 280.63 V 0 H 0 Z"
         transform="translate(-127.98141,-291.6924)"
         id="path4" />
    </clipPath>
  </defs>
  <sodipodi:namedview
     id="namedview1"
     pagecolor="#ffffff"
     bordercolor="#666666"
     borderopacity="1.0"
     inkscape:showpageshadow="2"
     inkscape:pageopacity="0.0"
     inkscape:pagecheckerboard="true"
     inkscape:deskcolor="#d1d1d1"
     showgrid="false"
     inkscape:zoom="1.4816557"
     inkscape:cx="187.29048"
     inkscape:cy="185.60317"
     inkscape:window-width="2490"
     inkscape:window-height="1376"
     inkscape:window-x="0"
     inkscape:window-y="0"
     inkscape:window-maximized="1"
     inkscape:current-layer="layer-MC0"
     showguides="true">
    <inkscape:page
       x="0"
       y="0"
       inkscape:label="1"
       id="page1"
       width="128"
       height="128"
       margin="122.56907 91.157333 122.56934 91.1576"
       bleed="0" />
  </sodipodi:namedview>
  <g
     id="layer-MC0"
     inkscape:groupmode="layer"
     inkscape:label="Layer 1">
    <g
       id="g3"
       transform="matrix(0.25549448,0,0,0.25549448,-1.4065868,-1.4065868)">
      <circle
         style="fill:#ffffff;stroke-width:0.788867"
         id="path6"
         cx="256"
         cy="256"
         r="241.05344" />
      <g
         id="g2"
         style="fill:#ff0000;fill-opacity:1">
        <path
           id="path1"
           d="m 0,0 c -32.576,0 -59.39,27.736 -59.39,60.127 0,32.393 26.814,59.757 59.39,59.757 32.203,0 58.826,-27.364 58.826,-59.757 C 58.826,27.736 32.203,0 0,0 m 6.693,131.607 v 135.12 h -13.08 v -135.12 c -36.797,-3.164 -65.651,-33.879 -65.651,-71.48 0,-37.414 28.854,-68.686 65.651,-71.854 v -132.972 h 13.08 v 132.972 c 35.941,2.969 65.162,34.44 65.162,71.854 0,37.777 -29.221,68.503 -65.714,71.48"
           style="fill:#ff0000;fill-opacity:1;fill-rule:nonzero;stroke:none"
           transform="matrix(1.0518233,0,0,-1.0518233,256.09624,320.17595)"
           clip-path="url(#clipPath2)" />
        <path
           id="path3"
           d="m 0,0 c -4.791,0.219 -9.069,-3.318 -14.292,-10.207 l -13.027,8.564 c 6.891,14.894 14.704,21.411 24.206,21.411 10.235,0 20.47,-9.862 27.922,-9.862 4.462,0 8.747,2.23 14.334,10.426 l 12.845,-8.56 C 44.911,-1.822 37.655,-10.014 26.296,-10.014 15.306,-10.014 5.82,0 0,0"
           style="fill:#ff0000;fill-opacity:1;fill-rule:nonzero;stroke:none"
           transform="matrix(1.0518233,0,0,-1.0518233,243.02629,261.32486)"
           clip-path="url(#clipPath4)" />
      </g>
      <text
         xml:space="preserve"
         style="font-size:26.6667px;line-height:1.25;font-family:FreeSans;-inkscape-font-specification:FreeSans;text-align:center;letter-spacing:0px;word-spacing:0px;writing-mode:lr-tb;text-anchor:middle"
         x="364.17767"
         y="283.84103"
         id="text1"><tspan
           sodipodi:role="line"
           id="tspan1"
           x="364.17767"
           y="283.84103" /></text>
      <text
         xml:space="preserve"
         style="font-size:26.6667px;line-height:1.25;font-family:'Droid Sans Fallback';-inkscape-font-specification:'Droid Sans Fallback';text-align:center;letter-spacing:0px;word-spacing:0px;writing-mode:lr-tb;text-anchor:middle"
         x="371.04816"
         y="276.49863"
         id="text2"><tspan
           sodipodi:role="line"
           id="tspan2"
           x="371.04816"
           y="276.49863" /></text>
    </g>
  </g>
</svg>
