<?xml version="1.0" encoding="UTF-8"?>
<svg id="Layer_1" data-name="Layer 1" xmlns="http://www.w3.org/2000/svg" xmlns:serif="http://www.serif.com/" version="1.1" viewBox="0 0 3235.3 1153.4">
  <defs>
    <style>
      .cls-1 {
        fill: #528329;
      }

      .cls-1, .cls-2 {
        stroke-width: 0px;
      }

      .cls-2 {
        fill: #000;
      }
    </style>
  </defs>
  <g>
    <path class="cls-1" d="M78.6,592.5l37.3,24.5c15-19.7,27.2-29.9,41-29.2,16.7,0,43.8,28.7,75.3,28.7s53.3-23.5,73.6-62.4l-36.8-24.5c-16,23.5-28.3,29.9-41,29.9-21.3,0-50.7-28.2-80-28.2s-49.6,18.7-69.3,61.3h0Z"/>
    <path class="cls-1" d="M384.4,120.2v-40.2l-61.3,36.4V0h-34.5v137l-79,47V0h-34.5v92.2L13.1,0H0v32.3l174.9,99.6v134.7l-59.9-34.1v-86h-.2l.2-.4L0,80.6v39.7l80.5,45.8v46.7L0,167v39.7l174.9,99.6v78.9C77,394.1,0,476.5,0,576.7s70.3,175.3,162,189.8c1.2,3.5,2.2,7.1,3.1,9.1,2.1,4.6-2.1,74.6-3.2,85-1.1,10.4,12.4,38.4,15.2,43.3,2.8,4.8-3.5,23.1-5.9,25.5-2.4,2.4-2.3,13.6-3.6,18.6-2.9,11-27.7,41.9-37,45.4-1.5.6-13.5.3-18.9,3.5-5.4,3.1-49.5,1.6-53.8-.9-4.3-2.5-32.8-9.9-44.8-12-2.8-.5-7.5-4.1-12.9-9.2v22.8c18.9,6.7,31.9,17.4,38.4,20.5,6.5,3.2,11.5,9.5,13.9,18.5,2,7.6-35.5,25.5-52.2,35.8v40c15.9-16.6,46.6-40.6,50.8-43.1,5.7-3.3,55.2-31.9,64.7-31.9s2.8,30.2,1.6,37.4c-1.2,7.2,7.6,52.9,2.8,55.7-2.6,1.5-3.5,12.3-3.8,22.8h29.8c1-5.6,2.4-10.8,4.7-11.3,2.6-.6,7.9,5.2,12.4,11.3h22.2c-3.6-4.6-7.2-8.7-8-9.4-1.8-1.8-14.5-11.8-16.6-19.9-2.1-8.1-14.5-21-17-23.4s-.7-47.5.6-51.2c3.5-9.7,14.7-23.6,14.7-28.5s20.4-19.8,26.8-19.8,17.6,30.9,28.5,39.1c8.7,6.6,24.4,35.9,27.6,39.1,9.8,9.8,11.4,47.9,11.4,58.1s-.6,9.6-1.5,15.8h18.8c1.4-7,2.4-13.2,2.8-15.2,1.1-5.1-2.6-32.1,0-34.7,2.6-2.6,25.9.9,35.8.9s30.1-9.9,33-8.8c7.6,2.8,7.8,12.2,20.1,21.7,3.9,3,12.3,7,22,11v-10.2c-13.4-9-22.1-32.7-20.8-36.2.5-1.2,9.3-8.2,20.8-17.4v-20.5c-16.1,11.4-44.9,23.2-52,27.3-8.8,5.1-47.5-5.1-55.5-9.7-7.9-4.6-44.8-51.5-50.6-64.2-4.7-10.3-5.1-54-5.1-59.8s5.5-20.2,10.6-23.1c5.1-3,50.8,14,60.5,19.6,9.7,5.6,4.2,31.2,9.7,36.7,5.6,5.6,13.3,16.1,16.2,17.8,2.9,1.6,3.2,7.8,4.8,7.8s1.4-11.5,1.4-14.8-6.5-9.1-12-12.2c-5.5-3.1-6.4-31.7-4.4-32.8s6.8,0,13.2,3.7c6.3,3.6,21.5,10.4,31.4,10.4s6-6,0-6-28.5-14.2-31.9-16.2c-3.3-1.9-15.7-11.5-23.9-10.4s-35.2-20.3-45.6-22.4c-10.4-2.1-13.9-14.3-13.9-18.2s-23-20.1-24.3-24.3c-1.3-4.2,1.3-44.9,3.2-46.9,2-2-1.6-9.7,7.2-24.3,4.2-6.9,11.9-14.3,18.9-20.1,81.6-22.2,141.9-96.9,141.9-185.5s-77-182.6-174.9-191.4v-161.2l174.9-103.9v.2ZM349.8,576.8c0,86.9-70.7,157.7-157.7,157.7s-157.7-70.7-157.7-157.7,70.7-157.7,157.7-157.7,157.7,70.7,157.7,157.7Z"/>
  </g>
  <g>
    <g>
      <path class="cls-2" d="M740.6,490.4h-144.6v-96.3h123.3v-21h-123.3v-91h141.5v-22h-166.3v252.3h169.5v-22Z"/>
      <path class="cls-2" d="M783.6,253v225.7c0,22.4,13.9,35.9,35.9,35.9s24.5-2.8,33.4-6.4l-4.3-19.5c-6,2.1-14.9,4.3-23.8,4.3s-17.1-3.9-17.1-22.4v-217.5h-24.2Z"/>
      <path class="cls-2" d="M959.2,516c35.9,0,67.5-19.2,78.9-46.2l-21-5.7c-8.9,19.9-32.7,33.4-56.9,33.4-35.5,0-65.4-29.1-68.6-68.9h158.5c.4-1.8.4-5.7.4-9.6,0-50.8-37.3-94.9-91.7-94.9s-92.4,43.4-92.4,95.2,39.1,96.7,92.8,96.7ZM891,411.1c2.5-39.8,32-68.2,68.2-68.2s65.4,28.1,68.6,68.2h-136.8Z"/>
      <path class="cls-2" d="M1168.2,516c35.5,0,66.5-19.2,76.8-45.8l-23.8-7.1c-5.7,17.1-30.2,31.6-54,31.6-36.6,0-67.5-33.4-67.5-75.3s29.5-73.9,67.2-73.9,42.7,11.4,53,30.2l23.5-7.5c-13.1-27-40.5-44.1-75.3-44.1-54.7,0-92.8,42.7-92.8,95.2s39.1,96.7,93.1,96.7Z"/>
      <path class="cls-2" d="M1371.8,503.5l-6.4-19.5c-2.8,1.8-14.6,8.2-28.1,8.2s-21.3-6.4-22.4-19.9v-125.8h42.7v-19.2h-42.7v-62.5h-24.2v62.5h-25.6v19.2h25.6v132.6c0,23.8,18.1,35.5,39.1,35.5s36.3-8.5,41.9-11Z"/>
    </g>
    <path class="cls-2" d="M1494.5,348.6v-22c-2.5-.4-6-.4-10.7,0-23.8,2.1-46.2,19.2-59,45.1v-44.4h-22.7v185.2h24.2v-115.1c10-29.9,35.9-47.6,68.2-48.7Z"/>
    <g>
      <path class="cls-2" d="M1596.5,516c53.7,0,92.1-44.1,92.1-95.6s-38.7-96.3-92.1-96.3-91.7,44.4-91.7,96.3,38,95.6,91.7,95.6ZM1529.3,420.7c0-41.6,30.6-75.3,67.2-75.3s67.5,33.4,67.5,74.6-30.6,74.6-67.5,74.6-67.2-32.7-67.2-73.9Z"/>
      <path class="cls-2" d="M2004.5,512.4v-108.4c0-48.3-14.9-80-56.5-80s-54.4,16.3-71.4,47.6c-4.3-28.1-23.8-47.6-54.7-47.6s-55.4,16.7-70.7,45.1v-41.9h-22v185.2h24.2v-113.4c9.2-31.6,33.1-53,60.8-53s40.5,19.2,40.5,62.9v103.4h24.2v-113c8.9-31.3,32.7-53.3,60.8-53.3s40.9,19.9,40.9,62.9v103.4h24.2Z"/>
      <path class="cls-2" d="M2040.8,459.1c0,31.6,26.3,56.9,62.5,56.9s56.2-12.1,72.9-33.4l.4,13.5c.4,7.8,6.4,16.7,18.5,17.1,2.1.4,5.7,0,11-.7v-19.2c-6-.4-8.9-3.2-8.9-10v-85.7c0-45.8-28.4-73.6-73.9-73.6s-47.3,8.5-71.1,24.9l9.2,17.1c20.6-14.2,39.8-21.7,59.4-21.7,32.7,0,52.2,19.9,52.2,51.2v15.6c-15.3-5.3-35.9-8.5-54-8.5-46.2,0-78.2,22.4-78.2,56.5ZM2164.8,473.3c-11,14.2-32.7,24.2-55.8,24.2s-45.1-19.5-45.1-40.2,23.1-38.4,57.9-38.4,35.2,3.2,51.2,9.6v27c0,4.6-2.8,11.7-8.2,17.8Z"/>
      <path class="cls-2" d="M2323.7,514.9c26.7,0,53.7-14.9,67.9-38.4v36.6c0,39.8-30.6,59.4-66.5,59.4s-53.7-11-68.2-34.5l-14.9,11.7c16.3,25.6,40.5,41.9,83.2,41.9s90.6-27,90.6-78.5v-185.9h-21.7v38.7c-16.3-23.8-39.4-41.9-71.1-41.9-50.8,0-86,44.8-86,96.3s35.9,94.5,86.7,94.5ZM2330.4,494.7c-38.4,0-69-34.1-69-73.9s24.9-75.3,66.1-75.3,53.7,19.5,64,46.2v57.2c-4.3,22.7-32.3,45.8-61.1,45.8Z"/>
      <path class="cls-2" d="M2624.7,512.4v-108.4c0-48.7-13.9-80-55.1-80s-63.6,18.1-78.5,45.1v-41.9h-22v185.2h24.2v-113.4c8.9-30.6,39.1-53,67.5-53s39.8,19.2,39.8,62.9v103.4h24.2Z"/>
    </g>
    <path class="cls-2" d="M2756.2,516c35.9,0,67.5-19.2,78.9-46.2l-21-5.7c-8.9,19.9-32.7,33.4-56.9,33.4-35.5,0-65.4-29.1-68.6-68.9h158.5c.4-1.8.4-5.7.4-9.6,0-50.8-37.3-94.9-91.7-94.9s-92.4,43.4-92.4,95.2,39.1,96.7,92.8,96.7ZM2688,411.1c2.5-39.8,32-68.2,68.2-68.2s65.4,28.1,68.6,68.2h-136.8Z"/>
    <g>
      <path class="cls-2" d="M2972.3,503.5l-6.4-19.5c-2.8,1.8-14.6,8.2-28.1,8.2s-21.3-6.4-22.4-19.9v-125.8h42.7v-19.2h-42.7v-62.5h-24.2v62.5h-25.6v19.2h25.6v132.6c0,23.8,18.1,35.5,39.1,35.5s36.2-8.5,41.9-11Z"/>
      <path class="cls-2" d="M3002.5,288.5h24.2v-35.5h-24.2v35.5ZM3002.5,512.4h24.2v-185.2h-24.2v185.2Z"/>
      <path class="cls-2" d="M3160.3,516c35.5,0,66.5-19.2,76.8-45.8l-23.8-7.1c-5.7,17.1-30.2,31.6-54,31.6-36.6,0-67.5-33.4-67.5-75.3s29.5-73.9,67.2-73.9,42.6,11.4,53,30.2l23.5-7.5c-13.1-27-40.5-44.1-75.3-44.1-54.7,0-92.8,42.7-92.8,95.2s39.1,96.7,93.1,96.7Z"/>
    </g>
    <g>
      <path class="cls-2" d="M571.1,904.6h24.9v-116.9h118.7v-20.6h-118.7v-92.8h140.7v-22h-165.6v252.3Z"/>
      <path class="cls-2" d="M775.5,680.7h24.2v-35.5h-24.2v35.5ZM775.5,904.6h24.2v-185.2h-24.2v185.2Z"/>
      <path class="cls-2" d="M932.9,908.2c35.9,0,67.5-19.2,78.9-46.2l-21-5.7c-8.9,19.9-32.7,33.4-56.9,33.4-35.5,0-65.4-29.1-68.6-68.9h158.5c.4-1.8.4-5.7.4-9.6,0-50.8-37.3-94.9-91.7-94.9s-92.4,43.4-92.4,95.2,39.1,96.7,92.8,96.7ZM864.7,803.3c2.5-39.8,32-68.2,68.2-68.2s65.4,28.1,68.6,68.2h-136.8Z"/>
      <path class="cls-2" d="M1062.6,645.2v225.7c0,22.4,13.9,35.9,35.9,35.9s24.5-2.8,33.4-6.4l-4.3-19.5c-6,2.1-14.9,4.3-23.8,4.3s-17.1-3.9-17.1-22.4v-217.5h-24.2Z"/>
      <path class="cls-2" d="M1145.8,812.6c0,49.8,37,95.6,88.5,95.6s54.4-15.3,69-39.4v18.1c0,9.2,8.5,17.8,18.8,18.5,3.2.4,6,0,11-.7v-19.2c-6-.4-8.5-3.2-8.5-10v-230.3h-24.2v113c-13.9-23.1-39.1-41.9-70-41.9-49,0-84.6,44.1-84.6,96.3ZM1300.4,841c-3.9,25.2-36.6,45.8-60.8,45.8-38.7,0-68.9-34.1-68.9-74.3s25.9-75,65.7-75,54.7,20.6,64,46.2v57.2Z"/>
    </g>
    <g>
      <path class="cls-1" d="M1457.5,904.6h164.6v-35.2h-117.3c8.2-21,23.8-30.6,60.8-49,20.6-11,52.6-28.4,52.6-63.6s-27.4-58.6-73.2-58.6-74.6,23.1-84.6,33.8l24.5,28.1c10.3-12.1,27.7-27.4,53.3-27.4s37.7,14.2,37.7,29.5c0,21.7-28.1,31.6-61.1,50.1-46.2,25.6-57.2,52.2-57.2,92.4Z"/>
      <path class="cls-1" d="M1838.5,800.5c0-62.6-39.1-108-91-108s-91,45.5-91,108,38.7,107.7,91,107.7,91-45.1,91-107.7ZM1798.7,800.5c0,42.6-21.3,71.4-51.2,71.4s-51.9-28.8-51.9-71.4,21-71.8,51.9-71.8,51.2,29.1,51.2,71.8Z"/>
      <path class="cls-1" d="M1870.8,904.6h164.5v-35.2h-117.3c8.2-21,23.8-30.6,60.8-49,20.6-11,52.6-28.4,52.6-63.6s-27.4-58.6-73.2-58.6-74.6,23.1-84.6,33.8l24.5,28.1c10.3-12.1,27.7-27.4,53.3-27.4s37.7,14.2,37.7,29.5c0,21.7-28.1,31.6-61.1,50.1-46.2,25.6-57.2,52.2-57.2,92.4Z"/>
      <path class="cls-1" d="M2168.7,949.8h39.1v-56.5h31.3v-35.5h-31.3v-156h-26.7l-121.5,156.7v34.8h109.1v56.5ZM2099.4,857.7l73.6-96.3v96.3h-73.6Z"/>
    </g>
  </g>
</svg>